<?xml version="1.0" encoding="UTF-8" standalone="no"?>
<!-- Created with Inkscape (http://www.inkscape.org/) -->

<svg
   width="131.51096mm"
   height="54.378834mm"
   viewBox="0 0 131.51096 54.378834"
   version="1.1"
   id="svg1"
   xml:space="preserve"
   inkscape:version="1.3 (0e150ed6c4, 2023-07-21)"
   sodipodi:docname="why-bored.svg"
   xmlns:inkscape="http://www.inkscape.org/namespaces/inkscape"
   xmlns:sodipodi="http://sodipodi.sourceforge.net/DTD/sodipodi-0.dtd"
   xmlns="http://www.w3.org/2000/svg"
   xmlns:svg="http://www.w3.org/2000/svg"><sodipodi:namedview
     id="namedview1"
     pagecolor="#ffffff"
     bordercolor="#999999"
     borderopacity="1"
     inkscape:showpageshadow="2"
     inkscape:pageopacity="0"
     inkscape:pagecheckerboard="0"
     inkscape:deskcolor="#d1d1d1"
     inkscape:document-units="mm"
     inkscape:zoom="0.46551692"
     inkscape:cx="-51.555591"
     inkscape:cy="194.40754"
     inkscape:window-width="1920"
     inkscape:window-height="974"
     inkscape:window-x="-11"
     inkscape:window-y="1609"
     inkscape:window-maximized="1"
     inkscape:current-layer="layer1" /><defs
     id="defs1" /><g
     inkscape:label="Layer 1"
     inkscape:groupmode="layer"
     id="layer1"
     transform="translate(-39.244524,-18.326563)"><path
       style="fill:#000000"
       d="m 79.915195,72.334647 c -3.4925,-0.254086 -6.61303,-0.570716 -6.93451,-0.703624 -0.32149,-0.132907 -1.31922,0.0078 -2.21719,0.312658 -2.80951,0.953851 -16.128101,0.515418 -22.069128,-0.72649 -4.270859,-0.892778 -7.061033,-3.175213 -8.672806,-7.094583 -2.346083,-5.704998 0.832691,-13.848532 6.681754,-17.117636 6.046172,-3.37927 13.980636,-2.445012 22.98133,2.705978 4.45187,2.547752 6.416,2.200737 10.11348,-1.786804 12.20352,-13.160886 21.589745,-20.846036 31.219085,-25.561242 8.58185,-4.202282 15.68597,-5.039142 24.63688,-2.902207 8.13927,1.943163 15.71932,7.256543 18.54151,12.997013 1.17891,2.397968 1.21405,2.591977 1.21405,6.702778 0,3.18239 -0.15921,4.689815 -0.64129,6.0721 -0.68376,1.960537 -4.08053,7.865747 -5.28287,9.184148 -0.39743,0.435797 -0.65584,0.837859 -0.57423,0.893471 0.0816,0.05561 1.10089,0.389032 2.26505,0.740936 4.24558,1.283348 7.15342,2.452905 11.81338,4.751434 5.6667,2.795104 7.76579,4.580325 7.76579,6.604613 0,2.514289 -1.61153,4.014644 -5.11528,4.762392 -2.83427,0.604873 -77.698255,0.749025 -85.725005,0.165065 z m 36.688895,-0.900598 c 9.82966,-0.485687 11.86958,-0.98704 11.3013,-2.777532 -0.29445,-0.927713 -2.82181,-2.569835 -5.9764,-3.883095 -2.92887,-1.219291 -11.69189,-3.690885 -20.67073,-5.83014 -4.490955,-1.069991 -6.173615,-1.610688 -6.173615,-1.983789 0,-0.386745 0.38414,-0.487898 1.56184,-0.411264 1.52371,0.09915 16.858885,3.869781 18.834045,4.630939 1.73941,0.67031 2.26844,0.489154 2.73947,-0.938088 0.39668,-1.201949 2.34785,-5.675286 4.65562,-10.673648 2.88724,-6.253449 2.78473,-5.877896 2.88906,-10.583333 0.10197,-4.599313 0.57337,-6.954825 1.45993,-7.295027 0.84633,-0.324768 0.88537,2.93e-4 0.3218,2.679393 -0.29445,1.399802 -0.52792,3.288778 -0.51881,4.197725 l 0.0166,1.652631 0.95357,-1.234722 c 1.55804,-2.017403 3.53366,-3.880555 4.1148,-3.880555 0.99909,0 0.55849,0.978721 -1.32133,2.935154 -2.03383,2.116725 -2.94679,3.812958 -7.2494,13.469012 -3.51255,7.882983 -4.36804,10.052422 -4.1688,10.571628 0.0859,0.223953 0.84746,0.613895 1.69228,0.866539 3.51417,1.050922 7.49289,3.671685 8.24037,5.427893 0.40776,0.958027 0.40391,1.241931 -0.0258,1.906944 -0.2777,0.429736 -0.5049,0.891104 -0.5049,1.025261 0,0.267297 32.46755,-0.13081 34.74861,-0.426076 3.23646,-0.418938 3.73214,-0.56767 4.75211,-1.42592 1.86096,-1.565894 1.42668,-3.111285 -1.36887,-4.871178 -4.61808,-2.907238 -9.62075,-5.155438 -15.31428,-6.88225 l -3.793,-1.150391 -3.00559,2.885488 c -2.52624,2.425291 -3.09021,2.81526 -3.53617,2.445152 -0.45408,-0.376858 -0.0531,-0.927417 2.78147,-3.819212 3.79918,-3.875857 5.68862,-6.164531 7.15804,-8.670545 4.6183,-7.876218 4.14514,-14.552315 -1.4605,-20.607081 -3.46787,-3.745714 -7.24047,-5.868635 -13.90627,-7.82535 -12.58415,-3.694021 -26.46906,1.112585 -41.451395,14.34943 -2.98504,2.637278 -10.79792,10.541041 -12.98424,13.135288 -2.03345,2.412854 -3.48555,3.466978 -5.76632,4.185925 -1.7331,0.546311 -1.938,0.542795 -3.53897,-0.06074 -0.93464,-0.352343 -2.37729,-1.102211 -3.20587,-1.666374 -5.23394,-3.563662 -12.979749,-5.326676 -17.808165,-4.053294 -4.167531,1.099089 -7.391178,3.763311 -9.2008,7.604114 -0.961808,2.041373 -1.102585,2.713311 -1.082875,5.168636 0.02576,3.209425 0.746199,5.230708 2.628447,7.37447 2.057567,2.343439 4.369598,3.031057 12.638606,3.758832 4.58527,0.40356 14.262157,0.345156 14.694187,-0.08869 0.13379,-0.134349 -0.0949,-0.719173 -0.50821,-1.299608 -0.8495,-1.193014 -1.79495,-3.668605 -1.79495,-4.699951 0,-1.310938 1.18163,-0.535147 1.65026,1.083466 0.55485,1.916399 2.00526,3.85755 3.23036,4.323331 1.88639,0.717204 7.01977,1.067728 19.52552,1.333266 7.04655,0.149621 13.685045,0.295418 14.752195,0.323993 1.06715,0.02858 5.11528,-0.104923 8.99583,-0.296663 z M 52.409078,67.223381 c -0.127861,-0.206883 -0.129226,-0.701461 -0.003,-1.099061 0.355876,-1.121268 2.109155,-0.808341 2.109155,0.376445 0,0.692117 -0.201641,0.905279 -0.936824,0.990357 -0.515253,0.05963 -1.041438,-0.06086 -1.169299,-0.267741 z M 52.59278,56.468115 c -0.892477,-1.075369 0.51579,-2.483636 1.591159,-1.591159 0.753842,0.625633 0.49952,1.89838 -0.405164,2.027639 -0.405034,0.05787 -0.938732,-0.138546 -1.185995,-0.43648 z"
       id="path1" /></g></svg>
